<svg id="Capa_1" data-name="Capa 1" xmlns="http://www.w3.org/2000/svg" viewBox="0 0 384 384"><title>africa</title><path d="M212.24,374.08c-.88-.28-1.74-.59-2.63-.83-9.8-2.6-17.34-8.21-21.45-17.52-11.61-26.3-22.95-52.72-34.41-79.1-1.64-3.77-1.13-7.26.92-10.79,4.73-8.14,7.4-16.95,9-26.25,1.79-10.52-1.8-18.73-9.85-24.9-5.17-4-7.31-8.51-6.82-14.86.31-4.09,1.28-9-.5-12.15s-6.62-4.56-10.14-6.71a60.85,60.85,0,0,1-6.64-4,10.77,10.77,0,0,0-11.28-1.63c-6.93,2.62-14.19,4.72-20.58,8.33-23.15,13.08-43.73,4.55-57.77-11.42-11.79-13.4-18.27-28.9-17.81-47.14.38-14.86,0-29.74.1-44.61.07-15.17,6.34-27,19.12-35.4Q64.55,29.9,87.41,14.43a17.42,17.42,0,0,1,10.26-3.12q31.88.15,63.75,0c5.9,0,9.89,2.25,12.3,7.63,2,4.51,4.41,8.87,6.41,13.4.85,1.93,2,2.49,4,2.45,5.78-.12,11.57.09,17.35-.13a7.45,7.45,0,0,0,4.57-1.84c10.88-10.65,8.28-9.35,23.54-9.4,9.44,0,18.89.12,28.33-.06,5.59-.1,9.3,2.22,12,7.08,16.93,30.66,34,61.23,50.93,91.89a5.23,5.23,0,0,0,5.5,3.16c7.67-.19,15.35-.09,23-.06,7.33,0,11.76,4.35,11.62,11.69-.12,6.47-.05,13-1.13,19.37-1.57,9.2-7,16.62-12.91,23.65-5.21,6.25-10.64,12.33-15.67,18.73a45.18,45.18,0,0,0-10,29.56c.19,10.14-.08,20.3.09,30.45.1,5.41-2.21,8.92-6.61,12-6.55,4.57-12.67,9.77-18.91,14.78-2.65,2.12-3.33,4.93-2.52,8.24,1.54,6.29,2.73,12.68,4.49,18.9a13,13,0,0,1-2.18,12.28c-7.51,10-15.17,19.92-22.2,30.25-6.45,9.46-14.24,16.58-25.81,18.77ZM339.72,146.67c-7,0-13.68-.24-20.38.07-6.43.3-10.54-2.26-13.65-7.92C289,108.32,271.94,78,255.11,47.53c-1.17-2.14-2.42-3-4.91-2.94-5.3.21-10.68.54-15.92-.05-7.1-.8-12.5,1.24-16.78,7A11.34,11.34,0,0,1,207.92,56c-10.86-.06-21.73,0-32.59,0a10.81,10.81,0,0,1-10.46-6.52c-2.28-4.66-4.63-9.29-6.75-14-.93-2.08-2-2.93-4.46-2.91-17.48.13-34.95,0-52.43.14a9.46,9.46,0,0,0-4.87,1.48C82,43.62,67.7,53.28,53.28,62.7,46.64,67,43.55,73,43.58,80.8c.06,15,.27,30-.06,45-.31,14.1,5.45,25.43,15.12,35,8.13,8,16.73,10.63,28.88,4.35,8.93-4.6,18.64-7.85,28.26-10.9,6.19-2,12.95-2.33,19,1.11,9.52,5.44,18.86,11.21,28.24,16.89a10.61,10.61,0,0,1,5.32,9.76c0,4.49.14,9-.06,13.46a7,7,0,0,0,2.43,5.83c10.43,10.19,16,22.31,14.45,37.2a99.06,99.06,0,0,1-8.7,31.92,6.2,6.2,0,0,0-.18,4.54c10.11,23.62,20.37,47.18,30.59,70.75,2.1,4.87,5.78,7.21,11.1,7.17,8-.06,16.06-.11,24.09,0a12.22,12.22,0,0,0,10.82-5.5c7.2-9.94,14.59-19.74,21.71-29.73a7.55,7.55,0,0,0,.88-5.09c-.67-4.3-1.71-8.55-2.73-12.79-3-12.5.63-22.85,10.18-31.16,4.8-4.18,9.8-8.14,14.89-12a5.05,5.05,0,0,0,2.37-4.63c-.11-8.85-.09-17.7,0-26.56a62.4,62.4,0,0,1,4.59-22.75c4.07-10.13,10.66-18.56,17.68-26.74,4.38-5.09,8.72-10.25,12.78-15.6A20.89,20.89,0,0,0,339.72,146.67Z"/></svg>