<svg id="Capa_1" data-name="Capa 1" xmlns="http://www.w3.org/2000/svg" viewBox="0 0 384 384"><title>america</title><path d="M220.46,285.44c-9.23-.06-12.23-7-16.14-12.88-2.42-3.64-4.87-7.26-7.24-10.93a22.27,22.27,0,0,1,.72-24.32c1.59-2.19,3.21-4.35,5.36-7.26-6.2-1-11.51-2.19-16.89-2.67a26.53,26.53,0,0,1-18-8.78,168.51,168.51,0,0,0-13.77-13.22,17.48,17.48,0,0,0-7.43-3.73c-7.48-1.55-10.3-4-11.73-11.52-.46-2.46-1.1-4.89-1.33-7.37-1-9.95-4.7-18.56-11.92-25.55-5.44-5.28-6.89-11.43-4.95-18.82,1.73-6.63,2.6-13.48,4-20.19,1-4.46-1.31-8-3-11.7-.21-.45-2.07-.68-2.76-.29-6,3.39-11.9,4.09-18.17.84-.76-.39-2.33.12-3.17.72a24.81,24.81,0,0,0-4.39,4.06A36.94,36.94,0,0,1,67.14,124.6c-4,.72-7.9,2.26-11.89,3.26-7.17,1.81-13.81-1.51-16.91-8.32-3.2-7-1.59-14.77,4.94-18.4s10.42-7.56,9.59-15.83c-.54-5.23,3-9.68,7.6-12.59Q72.65,65,85,57.52a19.43,19.43,0,0,1,14.76-2.37c3.77.82,7.57,1.52,11.34,2.38,2.1.48,3.39.13,4.29-2.16,4.08-10.3,12-15.18,22.83-15.77,5.1-.27,10.21-.76,15.27-1.48A42.28,42.28,0,0,1,174,40.49c.91.32,1.87.51,3,.8l1.15-2.91C180.65,32,185.21,28,192.08,27.56c10.21-.67,20.44-1,30.66-1.26a14,14,0,0,1,13.48,9.5,15.42,15.42,0,0,1-5.31,17.45c-6.31,4.89-13,9.33-19.26,14.25a11.78,11.78,0,0,0-3.81,5.64c-1,3.27.35,6.18,3.5,7.88,3.62,2,7.26,3.89,11,5.67,2.84,1.36,4.55,0,4.22-3.11-.21-2-.49-4-.5-6,0-3.92,1.63-7.29,5-9.07,6.68-3.5,13.72-4.83,20.62-.53,6.14,3.83,12.44,7.53,18,12.09a31.89,31.89,0,0,1,8.17,10.83c2.61,5.48,4.21,11.46,6,17.29a17.12,17.12,0,0,1-9.28,21.28c-9.29,4.43-18.73,8.2-29.41,7.11-1.45-.15-3.21,1.23-4.55,2.26-1.05.8-1.59,2.23-2.5,3.25-7.18,8-10.87,16.89-10.23,28.15.63,10.83-11.81,16.57-21.11,10.41-4.55-3-8.86-6.36-13.65-9.83-2.61,4.05-5,7.78-7.72,12a21.12,21.12,0,0,0,3.64,1.3,17.16,17.16,0,0,1,12.59,8.48c.39.63.89,1.2,1.34,1.8,4.15,5.46,4.06,5.23,10.61,2.87a18.65,18.65,0,0,1,8.68-.81c16.15,2.41,32.24,5.19,48.37,7.71,6.79,1.06,11.91,4.32,14.9,10.54a7.6,7.6,0,0,0,6.49,4.72A109.79,109.79,0,0,1,305.61,222c9.85,2.53,15.27,9.45,17.51,19,1.05,4.47-1.5,9.27-5.7,11.69a16.52,16.52,0,0,1-3.05,1.41c-5.57,1.82-10.18,3.87-10.22,11.35,0,4.93-3.88,8.77-7.94,11.75s-8.32,5.6-12,8.94c-2.78,2.53-5.93,5.63-6.85,9-3,11.1-10.06,18.21-19.6,23.79-6.45,3.77-6.61,4.2-5.16,11.49,1.81,9.14.5,17.33-5.28,24.74C246,357,245,359.05,243.77,361c-3.62,5.81-8,8.18-13.17,7.06-7.14-1.55-12.31-6.31-12.87-12.86-.54-6.33-.14-12.74-.44-19.09a11.82,11.82,0,0,0-1.89-5.71,12.11,12.11,0,0,1,0-14c.51-.71,1.08-1.38,1.63-2.06,3.83-4.76,3.85-4.77.77-10.21a11.61,11.61,0,0,1-.63-10.45C218.09,291.19,219.1,288.79,220.46,285.44Zm16-207.84c.18,1.79.23,3.41.52,5,.9,5-.45,9.2-4.6,12.23-4.44,3.25-9.17,4.34-14.34,1.54-3.61-2-7.34-3.71-10.95-5.67-12.48-6.76-13.58-22.83-2.15-31.34,5.3-4,10.7-7.78,16.05-11.67,1.21-.89,2.8-1.57,3.49-2.76,1-1.69,2-4,1.57-5.62-.33-1.18-3-2.41-4.68-2.39-9.1.13-18.2.64-27.3,1a6.21,6.21,0,0,0-6.19,4.46c-3.15,8.66-8.12,11.12-16.92,8.18-5.41-1.8-10.78-2.82-16.52-2a130.24,130.24,0,0,1-15.26,1.47c-7.35.22-12.07,3.53-14.79,10.43-2.59,6.55-7.51,8.86-14.44,7.49-3.79-.75-7.6-1.46-11.34-2.39A11.74,11.74,0,0,0,89,67.28c-5.57,3.57-11,7.45-16.88,10.39-7,3.5-10.4,8.28-9.23,16.33.66,4.6-1.79,8.16-5.69,10.63-2.42,1.53-4.86,3.05-7.31,4.54-2.17,1.32-3.24,2.94-2.16,5.6s3,3.4,5.69,2.76c12.79-3,25.4-6.39,33.8-17.79a5.62,5.62,0,0,1,1.1-1c3.36-2.7,7.26-3.93,11.16-2,4.63,2.24,8.56,1.66,13-.6,4.78-2.46,10.42-1.37,13.23,2.65,4.35,6.22,7.44,13,5.91,21-1.32,6.86-2.49,13.76-4.12,20.56-1,4-.41,7.13,2.62,10.14a46,46,0,0,1,14.08,29.43c.23,2.6.95,5.16,1.32,7.75.32,2.27,1.25,3.44,3.78,3.62,4.78.35,8.75,2.67,12.17,6,5.19,5,10.55,9.94,15.58,15.14a14.75,14.75,0,0,0,9.2,4.36c5.92.8,11.87,1.59,17.71,2.86,8.21,1.78,11.6,10.52,7,17.58-1.36,2.09-3,4-4.41,6a12,12,0,0,0-.23,13.31c3.15,4.8,6.42,9.53,9.47,14.4a9,9,0,0,0,6,4.4c6.93,1.64,10.33,8.37,8,15.17-.65,1.88-1.76,3.64-2.17,5.56a6.56,6.56,0,0,0,.44,4.39c4.79,8,4.66,11.15-1.28,18.5-.63.78-1.6,1.46-1.83,2.34a7.41,7.41,0,0,0,0,3.74c.83,2.92,2.55,5.71,2.78,8.65a152.33,152.33,0,0,1,.09,17.23c-.13,3.94,1.45,6.13,5.66,6.74a101.65,101.65,0,0,1,5.69-9.07c3.69-4.73,4.36-9.88,3.24-15.55-.43-2.2-.52-4.47-.9-6.68-1-5.54.95-9.78,5.57-12.88,4.35-2.93,8.8-5.72,12.94-8.93,1.86-1.44,3.8-3.53,4.41-5.69a43.23,43.23,0,0,1,20.32-26.25c1.61-.95,3-2.25,4.56-3.29a10.84,10.84,0,0,0,5.3-9.7c-.06-5.94,2.88-9.87,8.35-12.05,3.33-1.32,6.6-2.8,10-4.26-1.7-6.47-5.21-10.47-11.63-11.58-3.68-.63-7.32-1.68-11-2-6.69-.54-11.14-3.88-13.81-9.87-1.47-3.28-4.07-4.79-7.55-5.34-13.66-2.17-27.32-4.37-41-6.72-5.58-1-10.8-1.49-16.22,1.44-4.59,2.49-9.67.73-13.1-3.29a31.24,31.24,0,0,1-3.18-4.17c-2.68-4.5-6.4-7.05-11.63-8.37-8-2-10.82-10.14-6.57-17.25,1.8-3,3.74-5.91,5.64-8.84,4.84-7.47,11.26-8.72,18.41-3.57,3.55,2.55,6.95,5.31,10.62,7.66a6.16,6.16,0,0,0,4.52.54c.69-.19,1.1-2.23,1.2-3.47a56.73,56.73,0,0,0,.14-7.49,23.17,23.17,0,0,1,5.28-16c3.07-3.93,6.08-7.94,8.79-12.13,3.23-5,7.61-7.57,13.51-6.88,9,1.07,16.87-2.35,24.7-6,2.91-1.35,4.94-3.78,4-6.83-2.22-7.38-4.86-14.64-7.71-21.8-.66-1.65-2.73-2.86-4.34-4-4.42-3-9.08-5.75-13.38-9C244.8,75.57,241,75.39,236.43,77.6Z"/><path d="M323.6,117a17.17,17.17,0,0,1-14.19-7c-10.16-13-20-26.17-24.89-42.3a11.79,11.79,0,0,0-6.08-7.19c-3.28-1.8-6.4-3.88-9.5-6a15.09,15.09,0,0,1-7-12.94q0-3.37,0-6.74c.11-13.91,12.83-22.47,25.72-17.31,4.74,1.9,9.53,3.71,14.17,5.82a98.58,98.58,0,0,0,29.31,8.37,17.72,17.72,0,0,1,9.16,4.49c7.18,6.55,9.54,23.19,5,31.73-1.88,3.52-3.55,7.21-5.86,10.44-3.5,4.91-4,10-2.26,15.55a37.37,37.37,0,0,1,1.26,5.85C339.85,109.57,333.51,116.93,323.6,117ZM338,57.69c-1.14-3.82-2.25-7.38-3.28-11-.85-3-2.68-4.65-5.83-4.9-11.32-.88-21.82-4.64-32.1-9.24-4.31-1.93-8.8-3.46-13.1-5.41-3.29-1.5-5.81-.78-8.55,1.39-3.94,3.11-2.35,7.27-2.72,11.09-.32,3.2,1,5.32,3.77,7.07C293.44,57.65,289.78,53.28,298,73c.48,1.15,1,2.3,1.43,3.45,4.39,10.69,12.57,18.79,19.12,28a3.38,3.38,0,0,0,2.11,1.43c2,.11,4.41.48,5.95-.43,1-.61,1.32-3.28,1.17-5A61.78,61.78,0,0,0,326,91.66a18.55,18.55,0,0,1,2-14.41c2.67-4.5,5.17-9.11,7.6-13.74A56.3,56.3,0,0,0,338,57.69Z"/></svg>