<svg id="Capa_1" data-name="Capa 1" xmlns="http://www.w3.org/2000/svg" viewBox="0 0 384 384"><title>antarctica</title><path d="M377.6,254.56c-1.42,6.4-5.57,11.32-8.77,16.8-9,15.49-18,31-26.33,46.92a57.68,57.68,0,0,1-15.74,19c-18.32,14.4-39.35,22.06-62.22,25.11-15.11,2-30.31,2.66-45.44.7-5.14-.66-10.22-2.63-15-4.7-4.06-1.74-7.72-4.43-11.5-6.8-8.06-5-10.48-12.88-6.49-21.51,1.92-4.16,4.18-8.15,6.26-12.22.43-.84.74-1.73,1.06-2.5-9.88-6.92-20.38-9.22-32-6.11-9.65,2.59-19.36,4.95-29.1,7.21-7.51,1.75-14.16.19-19.12-6.16C104.9,299.67,93.8,293.56,81,290.07c-2-.54-4-1-5.91-1.63-8.48-2.91-13-10.22-11.88-19.16.76-6.1-.05-7.29-5.36-10.47a157.29,157.29,0,0,1-14.74-9.76c-11.56-8.8-10.59-22.45,1.91-30,.72-.44,1.45-.85,2-1.19-.74-4.11-2.12-8.1-2-12s1.75-7.9,2.88-12.52c-3.13-2.07-6.71-4.69-10.51-6.91-9.15-5.35-13-12.77-11.19-23.58,1.69-10.2-2.06-19-10.55-25-10.14-7.11-10.75-17.63-4.42-27.16a57.28,57.28,0,0,0,5.25-10.65C20.1,91,26.1,86.7,35.83,86.66c5.06,0,10.13.06,15.19-.07,7.55-.19,13.3,2.76,17.16,9.31,2.81,4.78,5.57,9.59,8.52,14.28,12.58,20,40.68,19.93,53.61,0,6.59-10.16,12.17-20.67,15.3-32.53A36.51,36.51,0,0,1,153,63.76a229.26,229.26,0,0,1,19.08-19.23c5.1-4.72,11.73-4.65,18.15-4,3.51.34,6.1,3.93,6.18,7.5s-2.34,7.71-5.87,7.6c-11.74-.36-16.55,9.21-23.14,15.79-3.54,3.55-6,8.83-7.38,13.77-4.06,14.57-11.49,27.29-20.36,39.22-7.79,10.5-19.26,14.23-31.74,15.85-20.29,2.63-35.13-5.36-45.38-22.69-2.45-4.15-4.72-8.43-7.46-12.38a6.75,6.75,0,0,0-4.56-2.5,114.52,114.52,0,0,0-14.82.06,5.81,5.81,0,0,0-3.94,2.66c-2.71,4.81-4.92,9.89-7.56,14.74-1.1,2-1.28,3.17.77,4.75,13.59,10.46,19.29,24.27,16.92,41.28a5.32,5.32,0,0,0,2.75,6c5,3.13,9.9,6.44,14.78,9.78,6.16,4.21,8,9.81,4.52,16.26-3,5.59-3.32,10.54-.44,16.32,3.16,6.34.66,12.37-5.61,15.85L50,234.73c5.81,3.79,10.63,7.32,15.8,10.23,6.88,3.86,12,8.87,13.3,17a22.48,22.48,0,0,1,.11,7.54c-.59,3.12.86,3.84,3.38,4.64a177,177,0,0,1,18,6.39,62,62,0,0,1,23.56,18.16c1.82,2.27,3.54,2.69,6.19,2,11-2.75,21.92-5.7,33-7.91a45.18,45.18,0,0,1,31.48,5c1.47.81,3,1.57,4.51,2.28,9.11,4.25,12.64,13.89,8.26,23-2.28,4.77-4.81,9.43-7.39,14.45,7.07,4.21,13.35,9.53,22,10.11,24.3,1.64,48.31.53,71-9.17,8.32-3.55,16-8.83,23.65-13.73,5.26-3.35,8.81-8.28,11.55-14a381.28,381.28,0,0,1,31.09-54.18,11.89,11.89,0,0,0,2-6.37c.17-23,.1-46.08.24-69.11,0-2.75-1.13-3.82-3.5-4.57q-7.39-2.34-14.69-5c-6.92-2.56-9.8-7.16-9.54-14.4a191,191,0,0,1,7.87-48.75c1.48-4.87,1.32-4.92-3.3-6.81-3.9-1.59-7.82-3.13-11.72-4.73-5.49-2.26-7.69-6.46-5.78-11s6.23-5.93,11.53-3.85q6.72,2.64,13.38,5.44c11.23,4.74,14.59,11.53,11.74,23.32-2,8.31-4.2,16.59-5.74,25-1.11,6-1.24,12.22-1.9,18.33-.23,2.1.26,3.35,2.53,3.92,2.8.69,5.45,2,8.24,2.68,8.26,2.11,14.34,6.54,16.74,15.11Z"/><path d="M200.84,74.88c0-29.08,22.15-53.46,50.36-55.57C281.47,17,307.09,37,311.56,66.5c2.27,15-1.56,28.92-8.25,42.21-7.92,15.78-19.08,29.19-30.94,42.07-2.78,3-5.52,6.08-8.53,8.84-4.46,4.1-10.17,4.46-14.34.27-17.22-17.31-33.49-35.39-43.11-58.32A66,66,0,0,1,200.84,74.88Zm55.65,69.61c13.58-14.75,26.87-29.28,34.71-47.65A66.68,66.68,0,0,0,296,78.43c2.3-19.91-11.22-38.19-30.8-42.47A39.5,39.5,0,0,0,219,61.57c-4.85,14.12-1.64,27.32,4.88,40.06C232.11,117.69,244,131,256.49,144.49Z"/><path d="M288.12,75.48c-.26,18-14.58,31.76-32.7,31.44-17.15-.31-30.83-14.81-30.58-32.44a31.64,31.64,0,0,1,63.28,1ZM256.56,91a15.74,15.74,0,1,0-15.79-15.84A15.67,15.67,0,0,0,256.56,91Z"/></svg>