<svg id="Capa_1" data-name="Capa 1" xmlns="http://www.w3.org/2000/svg" viewBox="0 0 384 384"><title>arg</title><path d="M168.81,375c-7.37-6-14.7-12-22.15-17.89a5.63,5.63,0,0,1-2.53-5c.15-6.86.05-13.73.05-21.14,6.23,0,12.14.35,18-.1a16.24,16.24,0,0,1,13.38,4.86c4.71,4.51,10,8.39,14.9,12.72a5.84,5.84,0,0,1,1.91,3.79c.15,7.6,0,15.2,0,22.8ZM155.34,341.9c-1.23,5.18-.53,9,4.15,11.89a52.68,52.68,0,0,1,9.69,7.75c3.78,3.76,8.07,2.76,12.14,2.61,1.74-6.37-.08-10.92-5.45-14.13a19.06,19.06,0,0,1-4.89-4.09C166.71,340.68,161.08,341.45,155.34,341.9Z"/><path d="M133.49,192.05H122.78v-4c0-11.54.06-23.07,0-34.61,0-2.45.43-4.45,2.48-5.89,7-4.88,9-11.44,8.46-19.91-.74-12.44-.26-25-.12-37.45a12.5,12.5,0,0,1,1.53-6.4c7.75-12,11-25.07,9.15-39.26-.71-5.55,1.21-9.53,5.37-13.31,7.28-6.63,14-13.87,21.23-21.1l7.61,6.5c.31-.1.65-.1.74-.25,3.71-6.18,9.32-6.9,16-6.95,6.08,0,10.2,1.4,12.7,7a12,12,0,0,0,1.19,1.78c6.89,10,12.29,21.6,26.55,23.2-.73,3.14-1.35,5.28-1.7,7.47-.59,3.59.71,5.76,3.7,6.73,3.39,1.09,5.46-.47,7-3.31a2,2,0,0,0,.34-.62c.78-6.32,5-6.72,10.16-6.37,5.68.38,11.39.09,17.52.09,0,7-.58,13.81.16,20.48.79,7.25-1.47,11.71-8.53,13.66-.9.25-1.67.92-2.56,1.24C251.56,84.4,243.87,91.36,237,99.35a7.58,7.58,0,0,0-1.59,4.06c-.26,2.59-.08,5.22-.08,8.11H224.64c0-4.65-.1-9.26.08-13.86a5.39,5.39,0,0,1,1.73-2.93c4.88-5,9.53-10.36,14.87-14.88,3.45-2.92,7.87-4.74,12-6.84,8.93-4.57,9-4.51,8.63-14.56,0-.69-.14-1.37-.23-2.19-3.81-.46-6.79-.78-9.15,3.56-3.23,5.94-10.94,7.91-18,5.75S223.08,58,223,51c0-2.26-.64-3.56-2.77-4.21-4.77-1.47-8-4.63-10.6-8.87-3.15-5.17-6.79-10-10.23-15-2.41-3.47-8.34-3.74-11.19-.52q-3.92,4.41-7.82,8.81a5.83,5.83,0,0,1-.8.59l-8.26-7C166.15,30,161,35,156,40.23a5.63,5.63,0,0,0-1,3.58c-.1,6.89.06,13.79-.11,20.69a12.24,12.24,0,0,1-1.44,6.07c-8,12.22-10.54,25.5-9.42,40,.76,9.93.24,20,0,30,0,1.79-.8,4.24-2.1,5.2-7.16,5.33-9.57,12.14-8.66,21,.73,7.06.15,14.26.15,21.39Z"/><path d="M153.45,250.3c3.55-7.47,6.87-14.69,10.49-21.75.48-.94,2.57-1.69,3.77-1.52,4.3.59,6.69-1.16,8.6-4.95,2.51-5,5.66-9.58,8.28-13.93-2.49-2.94-5.18-5.36-6.91-8.35a12.57,12.57,0,0,1,0-12.67c2.92-5.27,6.31-10.28,9.57-15.52,1.6.88,2.89,1.66,4.25,2.32,5.56,2.7,9.29,1.63,13-3.34a7.13,7.13,0,0,1,3.65-2.33c8.11-2.28,16.24-4.49,24.43-6.49,2.36-.57,2.88-1.65,3-3.9.28-7.67.65-15.24-6.66-20.45-5.21-3.71-4.5-9.11-3.92-14.68h10.39c-1.47,7.28,4.51,10.57,8.21,15a10.25,10.25,0,0,1,2.68,7.34q-.27,10.51,0,21c.06,2.39-.82,3.31-3,3.87q-14.16,3.6-28.23,7.47a8.92,8.92,0,0,0-3.89,2.15,16.15,16.15,0,0,1-15.24,5c-2.55-.46-4,0-5.52,2.3-5,7.72-5.07,7.94,2.78,12.84,2.11,1.32,4.2,2.65,6.56,4.14l-15.48,25.73a40.17,40.17,0,0,1-3.56,5.73c-.93,1.08-2.68,2.27-3.9,2.12-4.3-.53-6.64,1.22-7.81,5.18a36.29,36.29,0,0,1-1.73,3.91c4.07,2.71,8.2,5.26,12.06,8.16a6.31,6.31,0,0,1,2.33,4.15c.28,5.33.25,10.7,0,16a6.18,6.18,0,0,1-2,4.06c-7,5.76-14,11.38-21.17,16.92-1.73,1.35-2.21,2.57-.95,4.42,4.26,6.24,2.39,13.21,2.69,20.35-8.17,0-16.05-.66-23.78.17-8.46.91-12.92-2.22-17.21-9.54-5.07-8.66-8.63-17.1-7-27.07,1.3-8.05,3.1-16,4.85-24,1.15-5.21,2.86-10.31,3.84-15.55,1-5.09,1.36-10.3,1.92-15.46a46.62,46.62,0,0,0,0-4.75h10.93c-.28,5.56.16,11.12-1,16.35-2.62,12.3-5.91,24.46-9,36.64-3,11.62-.57,22,6.84,31.32a3,3,0,0,0,2,1.12c5.56.09,11.11,0,17.53,0L143,294.68c3-2.39,6-4.83,9-7.25,5.39-4.3,10.71-8.69,16.22-12.82,2.16-1.62,2.58-3.44,2.88-6,.58-5-1.21-8.13-5.64-10.48C161.37,256,157.69,253.12,153.45,250.3Z"/><path d="M165.82,52.93V42.55h10.24V52.93Z"/><path d="M165.83,74.32V64h10.23V74.32Z"/><path d="M133.25,203.13v10.4H123v-10.4Z"/></svg>