<svg id="Capa_1" data-name="Capa 1" xmlns="http://www.w3.org/2000/svg" viewBox="0 0 384 384"><title>asia</title><path d="M380.16,148.52c-1.35,3.64-2.17,7.62-4.2,10.83-2.5,3.92-6.76,6.81-8.87,10.87-2,3.91-1.75,9-3.52,13.1-2.34,5.47-7.5,8.05-12.95,10-2.07.74-3.87,2.21-6.35,3.67,2.45,2,4.14,3.59,6,4.91,8.05,5.68,10,14.53,8.22,24.58-1.26,7-9.39,13.16-17.83,14.24a15.88,15.88,0,0,1-18.2-13.3,10.33,10.33,0,0,0-.92-3.51c-5.16-8.41-10.41-16.77-15.78-25.37l-4.52,2.81c1.81,2.55,3.41,4.93,5.13,7.22,2.64,3.51,5.48,6.87,8,10.47A14.26,14.26,0,0,1,316,233c-1.92,5-3.47,10.25-6.08,14.89-1.95,3.47-4.78,7.34-8.2,8.93-8.78,4.09-17.63,8.53-27.54,9.44-4,.36-8,.06-12.44.06,1.76,1.85,3.34,3.64,5.06,5.3,6.15,5.95,8,13.31,6.67,21.48A16.36,16.36,0,0,1,270.4,300a44,44,0,0,1-6.66,6.78c-5.25,4.56-11,8-18.53,5l-.49,1.24a33.65,33.65,0,0,1,4.36,3.66c3.31,3.87,6.78,7.68,9.51,11.95,2.59,4,2.85,8.8,1.51,13.46-2.09,7.25-7.89,10.11-15.1,7.9a33.94,33.94,0,0,0-9.15-1.5c-9.72-.19-16.91-4.81-21.79-12.74-5.19-8.42-14.25-25.48-13.15-39-3.26.53-6.58,1.48-9.92,1.52-9.25.1-15.92-5.51-18.46-15.24-1.23-4.69-2.16-9.46-3.36-14.16a8.47,8.47,0,0,0-1.27-2.42l-21.63,14.81c0-.15-.13.14,0,.31,4.42,9,3.18,17.33-2.49,25.5-3.12,4.48-5.37,9.57-8,14.42-4.38,8.17-11.85,9.18-19.87,8.23-6.91-.81-10.62-5.43-12.34-11.89-1.94-7.31-3.91-14.62-5.86-21.93-1.38-5.17-7.82-10.07-13-9.91-10,.29-14-2.59-18.68-11.56-4-7.58-5.67-15.2-4.09-23.64.43-2.34.06-4.82.06-7.87-4.15-.2-7.88-.56-11.62-.54-7.53.05-11.34-2.72-12.82-10.2-1.37-7-2.17-14-3.64-20.92a27,27,0,0,0-3.79-9.81,20.74,20.74,0,0,0-7.81-6.68c-7.06-3.32-12.59-7.83-15.63-15.16C1.27,166.6,11.17,150.89,25.23,150c8.56-.56,15.53,2.86,21.28,8.8,2,2.07,3.52,2.06,5.62.61,2.81-2,4.83-4,5.91-7.75,1.16-4,4.45-7.48,6.82-11.18l1,.56c-.08-.17-.12-.43-.25-.51-10.46-6.61-11.29-18.61-2.06-28.69,4.88-5.32,11.37-6.67,18-8,7.4-1.45,14.74-3.28,22-5.2,4.92-1.3,9.38.43,10.87,4.69A7.83,7.83,0,0,1,109,113.79c-8.44,2.38-17,4.38-25.59,6.09-6.81,1.36-8.08,1.82-9.62,6.2,8.64,5.46,10.38,9.31,8.49,18.77-.15.71-.48,1.39-.6,2.11-1,5.85-8.46,6.9-9.22,13.62-.65,5.75-6.51,8.88-11.17,12a30.85,30.85,0,0,1-8.64,3.83c-6.18,1.74-11.49-.16-16-4.65A28.23,28.23,0,0,0,30.7,167c-3.46-1.92-6.1-1-8.62,2.2s-.07,5.26,1.58,7.35a8.8,8.8,0,0,0,3.87,2.64c10.72,3.78,17,11.76,20.2,22.14,2.13,7,3.2,14.26,4.42,21.47.4,2.38,1,3.38,3.57,3.38a43.69,43.69,0,0,1,7.62.92c9.34,1.74,13.92,6.68,14.55,16.13A60,60,0,0,1,77.5,256c-.77,5.14,2.1,8.89,4,13,.28.59,1.92.75,2.92.74a29.06,29.06,0,0,1,28.75,21.82c1.74,6.48,3.41,13,5.23,19.44.28,1,1.24,1.8,1.88,2.69a9.18,9.18,0,0,0,2.29-2c3.21-5.61,6.4-11.25,9.38-17a6.18,6.18,0,0,0,.23-4.08c-.62-2.34-1.73-4.55-2.56-6.85-2.3-6.3-.57-11.6,5.14-15.17,4.66-2.91,9.66-5.32,14.1-8.52a22.23,22.23,0,0,0,6.54-7.47c2.28-4.37,4.82-8,10-8.65,5.36-.62,9.18,2.22,11.88,6.48,4.84,7.64,9.7,15.32,10.06,24.81a18.08,18.08,0,0,0,.7,3.59c.74,3,2.36,4,5.4,2.73a46.18,46.18,0,0,1,8-2.65c8.69-1.9,15.29,3.2,15.79,12.1.17,2.92-.36,5.94.15,8.78a77.89,77.89,0,0,0,3.48,12.91,88.87,88.87,0,0,0,6.21,13.61c3,5.34,6.94,6.76,12.31,5.36a6.68,6.68,0,0,0,1.34-.82c-1.43-1.31-2.76-2.49-4-3.71-7.63-7.29-14.08-15.32-15.93-26.11-1-6,1.58-11.29,6.6-13.85,5.25-2.68,10.84-1.58,15.33,3,1.7,1.74,3.37,3.53,5.18,5.14a3,3,0,0,0,4.53-.15c.59-.61,1.34-1.07,2-1.64,4.48-3.94,4.58-6.72.5-11-4.62-4.89-9.25-9.76-13.76-14.75-3-3.31-4.68-7.16-3.56-11.76,1.75-7.17,8.22-9.8,17.08-8.09,6.63,1.28,13.62,2.46,20.21,1.66,6.36-.78,12.42-4.1,18.57-6.43a4,4,0,0,0,2-2c1.72-4,3.39-8.11,4.81-12.26a4.28,4.28,0,0,0-.85-3.22c-1.7-2.38-3.81-4.47-5.47-6.87-2.5-3.6-5.22-7.15-7-11.1-3-6.71-1.8-13.36,3.81-18,4.11-3.4,9.25-5.83,14.28-7.76,4.14-1.58,8.27.12,11.24,3.51a46.76,46.76,0,0,1,4.63,6.57c3.61,5.81,7.19,11.63,10.64,17.54,2.73,4.69,5.25,9.51,8.19,14.87.71-.63,2.92-1.7,2.93-2.78a11.15,11.15,0,0,0-2-6.53c-2-2.54-5.06-4.21-7.26-6.63-6.3-6.92-6.33-15-.34-22.18A24.86,24.86,0,0,1,345.26,178c4.68-1.38,5-2.08,4.55-6.76-.59-6,1.51-10.91,6.86-13.87a11.65,11.65,0,0,0,5.92-7.69c-3.84-2.53-7.19-5-10.79-7a12.58,12.58,0,0,0-5.92-1.42c-8,0-13.39-3.5-16.42-11-1.86-4.63-4.35-9-6.4-13.57a3.92,3.92,0,0,0-4.24-2.61c-4.15.12-8.29,0-12.87,0,.33,2,.56,3.74.92,5.45,2.16,10.12-2.78,18-8.24,25.63-1,1.41-3.2,2.29-5,2.73-13.43,3.24-26.88,5.46-40.22-.57a23.67,23.67,0,0,0-4.26-1c-4.89-1.16-7.72-5.22-6.74-9.7s5.2-7.13,10.13-6.06a74.66,74.66,0,0,1,9.82,2.89c8.27,3.05,16.42,1.12,24.55-.53,2.12-.44,4.76-7.11,4.23-9.95-.47-2.52-1.19-5-1.67-7.51-1.83-9.51,3.74-16.9,13.42-17.35,6.46-.3,12.95-.06,19.43,0s10.9,3.32,13.78,8.79c2.68,5.07,5.15,10.26,7.52,15.48a4,4,0,0,0,4.12,2.74,23.55,23.55,0,0,1,15.72,6,4.41,4.41,0,0,0,2.58,1.1c6.8.22,11.51,3.39,14.14,9.65Z"/><path d="M238.88,98.54c-.29,14.11-5,26.83-11.76,38.91-9.81,17.41-23.07,32.1-36.92,46.29-4.64,4.74-10.66,5.07-15.09.61-17.28-17.38-33.69-35.52-43.38-58.51-7.91-18.74-8.65-37.49,1.54-55.75,11.25-20.15,35.62-31.72,57.8-27.68,25.07,4.56,43.26,22.8,46.86,47C238.38,92.46,238.57,95.51,238.88,98.54Zm-56.67,70.27c11.64-12.43,22.41-24.72,30.68-39A72.14,72.14,0,0,0,222.13,105a40.43,40.43,0,0,0-64.52-38.73c-14.07,10.8-19.24,28.91-13.15,47.51C151.62,135.62,167,151.93,182.21,168.81Z"/><path d="M214.37,98.7A32.13,32.13,0,1,1,182.2,66.5,32.28,32.28,0,0,1,214.37,98.7Zm-16.15.14a16,16,0,1,0-16.32,15.85A16.11,16.11,0,0,0,198.22,98.84Z"/></svg>