<svg id="Capa_1" data-name="Capa 1" xmlns="http://www.w3.org/2000/svg" viewBox="0 0 384 384"><title>europa</title><path d="M13.44,284.47q3.78-13.71,7.57-27.41c2.6-9.47,9.63-12.94,18.72-9.24,5.94,2.42,11.84,4.94,17.85,7.19,3.53,1.32,7.5,2.79,10.74-.15s2.08-7.08,1.27-10.73c-1.21-5.47-3.15-10.79-4.18-16.28-1.52-8.08,2.07-16.11,8.38-17.63,4.64-1.11,9.72-.85,14.56-.5,2.59.19,3.94,2.66,3.61,5.44a4.77,4.77,0,0,1-4.85,4.47c-2,.11-4.11-.35-6.17-.39-4.2-.09-5.61,1-5.37,5.21.19,3.38,1.23,6.72,2,10.06,1,4.23,2.41,8.4,2.92,12.68,1.55,13-8.14,22.11-20.84,18.94-7.71-1.93-15.06-5.38-22.53-8.26C32.25,256,32,256,30.6,261.2q-3.2,12-6.35,23.91c-1.59,6,.52,10.68,5.61,13.87a34.5,34.5,0,0,0,8.71,3.93c4.5,1.29,9.2,1.9,13.76,3,3,.73,4.65,0,5.55-3.2a42.08,42.08,0,0,1,3.75-8.83c4.39-8,11.07-12.75,20.29-13.41,2.16-.15,2.82-1,3.26-3,1.19-5.55,4.62-8.41,10.31-8.91a31.54,31.54,0,0,1,5.83,0,45.45,45.45,0,0,0,21.28-2.68c6.18-2.37,12.08-.42,15.51,5.3,2.64,4.39,4.46,9.26,6.76,13.86,3.28,6.54,6.4,13.18,10.1,19.47a27.84,27.84,0,0,1,4.17,15.69,8.81,8.81,0,0,1-2.87,5.4,93.49,93.49,0,0,1-8.82,6.53c2.61,3.44,6.83,3.75,10.88.57a13.71,13.71,0,0,0,3.31-3.88,18.11,18.11,0,0,1,11.1-8.93,17.4,17.4,0,0,0-2.35-2.21c-5.43-3.35-8.68-8.37-11.12-14.07-3.5-8.19-7.09-16.35-10.58-24.55-2.84-6.65-1.28-12.17,4-14.81a9.48,9.48,0,0,1,9.52.48c9.59,5.62,19.16,11.29,28.75,16.9,5.66,3.31,7.78,8.38,6.71,14.59-.77,4.53.6,7.43,4.15,10.36,2.62,2.17,4,5.78,6.33,9.23l4.67-1c-1.53-3.13-3-5.95-4.3-8.81-2.65-5.61-.1-10.79,6-11.86,2.69-.47,5.53-.12,8.22-.58a14.93,14.93,0,0,0,6.14-2.23c6.19-4.52,9.87-10.47,10.42-18.44a71.29,71.29,0,0,1,2.9-14.46c1.73-6,5.38-8.08,11.38-7,6.32-7.31,9.5-8,17.43-3.58,1.7-1.87,3.47-3.94,5.36-5.9,4.19-4.36,8.89-7.95,15-9.28,4.64-1,8.11.84,9.89,5.26a15.17,15.17,0,0,1-1.8,15.36c-2.7,3.6-6.42,6.43-9.75,9.54a25.34,25.34,0,0,1-2.92,2l.37,1a36,36,0,0,0,3.89-.89c4.59-1.6,9.14-2.15,13.71,0,5.14,2.46,7.27,6.76,6.79,13.74-.36,5.14-3.3,9.4-8.45,10.48-8.28,1.73-16.69,2.83-25.06,4.15-2.38.38-4.78.61-7.17.9a17.2,17.2,0,0,0-13.27,8.58c-2.07,3.31-5.56,6-8.89,8.2-2.7,1.81-3.41,4-2.2,6.34a33.55,33.55,0,0,0,6.37,9.23c1.34,1.27,4.55,1.26,6.71.82,6.16-1.26,12.19-3.15,18.32-4.59a25.74,25.74,0,0,1,14.21.94,8.89,8.89,0,0,0,6-.72c3.08-1.47,5.78-3.7,8.76-5.41s5.93-1,7.46,1.68.69,5.25-2.1,7.09q-5,3.3-10.15,6.46a12.9,12.9,0,0,1-12.2,1.17c-4.64-2-9.14-1.65-13.77-.38-5.08,1.39-10.12,2.94-15.26,4.09-7.38,1.65-13.57-.28-18.14-6.65-3.64-5.07-7.28-10.08-7-16.77.24-5.4,2.89-9.14,7.39-12a20.67,20.67,0,0,0,6.58-6.12c4.18-7,10.31-10.58,18.06-11.78,10.19-1.58,20.4-3,30.58-4.58a4,4,0,0,0,2.77-1.93c.93-2.43-.44-4.2-3-3.91a39.09,39.09,0,0,0-6.62,1.72c-6.13,1.86-11.15-.12-13.57-5.39-2.87-6.25-1.44-11.14,4.15-14.87a41.24,41.24,0,0,0,7-5.46c1.56-1.62,2.4-3.93,3.55-5.92l-1-.92a64.64,64.64,0,0,0-6.14,4.42c-2.88,2.62-5.43,5.6-8.28,8.26-4.9,4.59-8.19,4.6-11.7,1.53a47.46,47.46,0,0,1-6.27,3.69c-2.15.87-4.55,1.12-7.59,1.82-.79,4.23-2.16,9.21-2.58,14.27-1,12.13-9,19.08-18,25.38-1.47,1-3.64,1.19-5.53,1.46a47.75,47.75,0,0,1-5.49.15c-.09,0-.17.12-.6.42,1.14,2.34,2.27,4.78,3.49,7.18,3.16,6.21.45,11.92-6.32,13.25-2.8.55-5.61,1.1-8.42,1.61-6.07,1.1-10-1.35-11-7.34a10.45,10.45,0,0,0-3.92-6.86,15.43,15.43,0,0,1-5.8-15.92c.68-3.46-.5-5.49-3.58-7.19-7.63-4.21-15.07-8.75-22.59-13.15-.85-.49-1.74-.92-2.36-1.25,3.7,9.24,7.24,18.6,11.26,27.74,1,2.35,3.37,4.29,5.46,6,3.37,2.7,6.57,5.4,7.6,9.85,1.31,5.66-2.1,12.24-8,12-1.25-.06-3,1.5-3.82,2.76-4.39,6.88-10.22,11.38-18.57,12.09-7.08.6-17.59-7.22-19.07-14.21-.84-4,1.3-6.43,5-7.49,3.27-.93,6.24-3,9.25-4.76a2.36,2.36,0,0,0,.55-2.1,36.73,36.73,0,0,0-2.17-6.09c-4.09-8.3-8.29-16.54-12.44-24.81-.36-.72-.58-1.5-.9-2.23-3.66-8.61-3.56-8.08-12.6-6.29-6.77,1.34-13.84,1.27-20.79,1.43-2.85.07-4.6.17-5.15,3.62-.69,4.35-3.58,7.05-8,7.83a7.56,7.56,0,0,1-1,.23c-10.6.11-15.26,6.86-18.08,15.89-2.59,8.29-8.05,11.45-16.59,9.81-4.5-.86-9-1.68-13.47-2.77-11.45-2.79-20.47-8.49-24-20.59Z"/><path d="M153.9,191.45c11.2-1.17,22.16-1.82,32.93-3.63,6.74-1.14,8.39-4.76,8.58-11.66a35.76,35.76,0,0,1,2-12c2.14-5.37,6.76-6.91,12.38-5.54,5.43,1.33,9.67-1.07,13-5,4.41-5.12,6-11.44,7.3-18.76-2.47.79-4.41,1.23-6.2,2-3.15,1.37-6.11,3.2-9.31,4.39-10.48,3.9-20.06-3.14-18.9-14.26.44-4.16,2.49-8.23,4.27-12.13,1.56-3.41,4-6.42,5.57-9.83.56-1.22.27-3.86-.6-4.48-1.19-.85-4-1.14-4.91-.33-2.41,2.11-4.9,4.67-6.08,7.58-2.75,6.77-4.84,13.82-7,20.83a4.79,4.79,0,0,0,1,3.82,13.42,13.42,0,0,1,3.26,12.76,62.24,62.24,0,0,1-12.56,25,20.28,20.28,0,0,1-3.49,3.31c-6.46,4.84-13.77,3.11-16.34-4.54-1.73-5.12-2-10.74-2.78-16.16a28.88,28.88,0,0,1,0-4.36c-3.45.69-6.64,1.76-9.87,1.88-12,.47-18.31-9-13-19.68,4.41-8.87,10.23-16.6,19.77-20.69,6.28-2.69,10.63-7.54,14.17-13.13C171,90.6,174.63,84.21,178.5,78a88.59,88.59,0,0,1,5.73-8.16c9.77-12.39,22.26-17.35,37.72-13,8.81,2.47,17.54,5.31,26.16,8.39,7.14,2.56,9.84,10.16,6.38,17a32,32,0,0,1-3.93,6c-1.77,2.12-1.27,3.83.91,4.62a19,19,0,0,0,7.89,1.42c3.84-.32,5.39-3.26,4.1-6.95-2.06-5.9-.63-10.78,3.83-15,10.53-9.9,21-19.87,31.58-29.73a32.4,32.4,0,0,1,22.46-9q19.26-.12,38.54,0c4.27,0,6.05,1.88,6.07,6.13q.06,13.95,0,27.89c0,3.7-2.11,6.06-5.16,6.06s-5.12-2.35-5.14-6.06c-.05-7.77,0-15.55,0-23.64H335.09c-4.36,0-8.72-.07-13.08-.07a23,23,0,0,0-16.25,6.37q-15.31,14.35-30.57,28.79c-1.44,1.35-3,2.66-1.9,5,5.15,11.17-5.89,23.41-20.05,20.4a24.25,24.25,0,0,1-9.7-4.78c-5.68-4.55-6.11-10.9-1.84-16.76,5.27-7.24,5.32-7.38-3.08-10C230.77,70.4,222.87,68,214.89,66a17,17,0,0,0-16.09,4,87.64,87.64,0,0,0-11.91,14.07C182.27,90.8,178.46,98,174,104.84a39.22,39.22,0,0,1-17.59,14.93c-7.38,3.17-11,9.75-14.51,16.37-1.28,2.4.44,3.84,2.37,3.67a25.61,25.61,0,0,0,8.39-2.25c2.12-1,3.84-2.86,5.68-4.41s4-2.22,6.33-1,2.72,3.34,2.63,5.85q-.37,10.8-.32,21.62c0,1.87.71,3.74,1.1,5.61l1.6,1.07c.56-1.13,1.13-2.27,1.7-3.4,3.21-6.29,6.57-12.51,9.49-18.93a5.35,5.35,0,0,0-1.13-4.83c-4.15-3.72-4.44-8.09-2.92-12.89,2.36-7.42,4.65-14.87,7.39-22.16S191.7,90.93,200,89.34c10.12-1.93,18.77,7,15.86,16.89-1.35,4.61-4.41,8.71-6.58,13.1-1.25,2.53-2.78,5.09-3.3,7.8-.79,4.13,1.65,5.91,5.5,4.3,3.38-1.42,6.57-3.28,9.93-4.73,4.45-1.91,9.05-2.58,13.68-.58s6.52,5.38,5.36,10.18a103.91,103.91,0,0,1-4.3,14.81c-5.52,13.49-15.07,19.08-30.09,17.71-.16,2.09-.49,4.17-.45,6.25.25,13.08-4.76,20.83-17.62,23.07-11.9,2.07-24.14,2.3-36.26,2.8-5,.2-8-3.55-8.14-8.85-.08-3.65.42-7.31.67-11,.13-1.8-.12-3.21-2.47-3.14-2.19,0-3.24,1-2.78,3.21,1.88,8.84-2.21,14.47-9.27,19.26-3.43,2.33-6.12,6.09-8.41,9.67-2.52,3.94-5.41,7.07-9.83,8.65-3.32,1.19-6.07.16-7.23-2.61s.09-5.16,3.23-7c1.7-1,3.66-2.28,4.45-3.93a34.46,34.46,0,0,1,13.9-14.85c2.49-1.5,3.58-3.38,3.14-6.22-.15-.91-.12-1.84-.18-2.75-.29-4.82.34-9.34,5.16-11.81,5.35-2.75,10.84-3,16.05.33,3.29,2.07,4.49,5.47,4.48,9.19S154.16,186.66,153.9,191.45Z"/><path d="M331.77,269c-.51,5.54,1.15,8.93,5.69,10.6,9.53,3.5,13.23,10.6,13.51,20.22.38,13.05-1.58,15.6-14.29,18-1.35.25-2.7.55-4,.83-3.83.79-6.65-.7-7.26-3.82s1.27-5.43,4.92-6.22c2.58-.56,5.17-1.05,7.78-1.41,1.78-.26,2.65-1,2.52-2.9s0-3.89-.08-5.84c-.15-4.3-2.06-7.21-6.19-9-9.88-4.25-14.15-11.74-13.16-22.39.67-7.25,4.88-10.54,11.75-8.22,6.58,2.22,12.85,5.39,19.25,8.17,1,.44,2,1,3.45,1.71V93.87c0-5.56,1.64-8,5.3-7.9,3.51.09,5,2.45,5,7.84V274.88c0,.69,0,1.38,0,2.07-.2,4.93-3.89,7.08-8.33,4.8-6.52-3.35-13-6.8-19.52-10.13C336.17,270.65,334.11,270,331.77,269Z"/></svg>