<svg id="Capa_1" data-name="Capa 1" xmlns="http://www.w3.org/2000/svg" viewBox="0 0 460.8 432.32"><defs><style>.cls-1{fill:#fff;}</style></defs><title>map</title><path d="M438.08,361.4c-1.78,5.69-5.93,8.7-11.31,10.83q-61.09,24.28-122.08,48.86a17.87,17.87,0,0,1-14.23,0C251.65,405.45,212.78,390,174,374.33a10.2,10.2,0,0,0-8.31,0C127,389.89,88.14,405.1,49.59,421c-11.39,4.7-20.53-2.24-20.47-13.92.34-74.65.17-149.3.17-223.95,0-9.11,2.35-12.56,10.87-16q61.23-24.51,122.44-49.06c4.52-1.81,8.8-2.25,13.48-.35,24.62,10,49.32,19.76,74,29.67,7.3,2.94,10.65,9.18,8.69,15.75-2.34,7.85-10,11.22-18.28,7.91-17.41-6.91-34.78-13.92-52.17-20.88-1.7-.68-3.42-1.31-5.51-2.1-.08,1.6-.19,2.86-.19,4.11q0,97-.09,194c0,3.21,1,4.55,3.92,5.72,31.5,12.45,62.93,25.07,94.39,37.63,1.19.48,2.42.9,4,1.48v-5.18q0-63.08,0-126.15a29.67,29.67,0,0,1,.22-5.17,12.73,12.73,0,0,1,25.19.8,42.44,42.44,0,0,1,.13,4.79V391.07c1.56-.58,2.79-1,4-1.47C345.76,377,377.2,364.41,408.7,352c3-1.17,3.92-2.52,3.91-5.72q-.18-68.87-.05-137.72a23.62,23.62,0,0,1,.72-6.68c1.58-5.24,5.39-8.2,10.74-8.77s9.54,1.78,12.36,6.4c.6,1,1.14,2,1.7,3ZM54.83,391c1.57-.58,2.79-1,4-1.47C90.27,377,121.7,364.38,153.2,351.94c3-1.17,3.92-2.53,3.91-5.73q-.17-97-.09-194c0-1.26-.11-2.53-.19-4.14-1.57.59-2.79,1-4,1.51-31.32,12.53-62.62,25.11-94,37.51-3.09,1.23-4.1,2.68-4.09,6q.16,96.78.08,193.58Z"/><path d="M438.08,107.5c-2.62,17.91-10,34-18.89,49.51-14.67,25.59-32.44,49-51.41,71.46-3.09,3.66-6.11,7.39-9.35,10.91-5.72,6.22-14,6.35-19.56,0-25.43-29.25-49.48-59.53-67.14-94.31-5.67-11.16-10.56-22.68-11.86-35.31-2.17-21,3.54-40.12,15.53-57.21C290.63,30.82,311.66,18.27,338,14.8a19.26,19.26,0,0,0,2.65-.72h16c1.15.27,2.28.62,3.44.8,35.08,5.64,59.39,24.88,72.29,58,2.81,7.21,3.85,15.1,5.71,22.67ZM348.59,211.9c21.89-26.91,42.49-53.62,57.1-84.37,3.94-8.32,7.2-16.92,6.75-26.38a63.88,63.88,0,0,0-17.35-41.36c-20.9-22.74-56.39-26.65-82.26-9.12C292,64.8,274.88,96.57,292.27,129.34a434.87,434.87,0,0,0,37.29,58.36C335.62,195.74,342,203.53,348.59,211.9Z"/><path class="cls-1" d="M438.08,95.52c-1.86-7.57-2.9-15.46-5.71-22.67-12.9-33.09-37.21-52.33-72.29-58-1.16-.18-2.29-.53-3.44-.8h81.44Z"/><path d="M387,103.61c-.12,20.94-17.75,38.42-38.51,38.19-21-.24-38.41-17.87-38.08-38.6.33-20.92,17.54-38,38.3-38S387.06,82.78,387,103.61Zm-25.55-.14a12.75,12.75,0,1,0-12.62,12.78A12.83,12.83,0,0,0,361.4,103.47Z"/></svg>