<svg id="Capa_1" data-name="Capa 1" xmlns="http://www.w3.org/2000/svg" viewBox="0 0 347.53 360.34"><title>navigation</title><path d="M88.55,58.58C113.69,40,141.44,28.78,172.2,25.12A171.43,171.43,0,0,1,260.1,37.7c4.57-5.53,8.17-11.44,13.18-15.65,13.57-11.41,29.09-13.48,45.05-5.74s23.82,21.23,23.62,39c-.1,9.48-3.73,18.3-9.06,25.84-4.45,6.32-3.42,10.29.87,16.27C406.42,198.64,350,343.09,228.21,368.33A173.6,173.6,0,0,1,21.9,231.75C15,197,18.63,163.12,32.35,130.42a6.24,6.24,0,0,0-.69-6.74c-5.58-8.48-10.5-17.32-12.32-27.49C15.41,74.34,30.86,52.47,52.76,48.64,66.16,46.3,77.92,49.84,88.55,58.58ZM79,180c-1.27,6.08-.24,10.63,4.51,14.66,6,5.07,10.89,11.41,16.89,16.46,6.38,5.38,8.49,11.51,8.45,19.87s-1.64,14.89-8.51,19.76c-8.13,5.76-11.59,13.44-9.8,23.42.55,3.08-.92,5.46-3.13,7.61-6.52,6.36-12.91,12.85-19.6,19.53,26.67,31.32,59.93,50.22,100.62,57,0-8.8-.63-17.09.17-25.25.88-9-1.46-16-8.9-21.25-2.66-1.88-3.4-4.68-3.29-7.92.17-5.19,0-10.4,0-15.82-5.84,0-11.21.26-16.53-.12a12.31,12.31,0,0,1-6.59-2.68,80.86,80.86,0,0,1-10-10.06,12.46,12.46,0,0,1-2.65-6.61c-.4-4.85,0-9.75-.17-14.62a9.51,9.51,0,0,1,3.17-7.64c5-4.83,9.89-9.82,14.73-14.65-10.54-21.44-5.8-39,5.94-50.64,16-15.87,34.37-16.74,54.1-5.87-.35-5.48,1.61-11.09-4.12-14.75-7.83-5-8.67-12.63-8-21,.44-5.16,2.2-7.36,7.28-7.38q16.65-.06,33.31,0c5.31,0,7.36,2.14,7.38,7.59,0,7.88.1,15.76,0,23.63-.22,16.38,2.1,10.89-9.33,22.67-3.35,3.45-6.36,7.67-13,5.7,6.74,14.18,4.75,27.12-1.55,40,4.53,4.52,8.66,9.49,13.62,13.39,8.31,6.53,10.71,14.47,10.65,25,0,10.31-1.94,18.47-10.4,24.7-1.14.83-1.83,2.91-1.89,4.45-.22,5.5-.22,11,0,16.5a10.11,10.11,0,0,1-3.38,8.31c-4.35,4.12-8.54,8.41-12.73,12.71-.81.83-1.79,2-1.81,3-.17,6.46-.09,12.94-.09,19.48,1.74,0,3.1.13,4.43,0a160,160,0,0,0,83.38-33.9,6.3,6.3,0,0,0,1.93-4.35c.18-9.13.2-18.26,0-27.38a8.31,8.31,0,0,0-2.12-5.13c-8.17-8.43-16.64-16.57-24.74-25.07a11.59,11.59,0,0,1-2.85-6.88c-.36-7.61,0-15.25-.23-22.87a8.69,8.69,0,0,0-2.09-5.15c-3.78-4.16-7.52-8.48-11.92-11.89-8.07-6.24-10.24-13.94-10.23-24,0-10.51,1.64-19.07,10.55-25.38,1-.74,1.7-2.73,1.73-4.15q.24-12.94,0-25.88a7.29,7.29,0,0,0-1.86-4.5q-11.08-11.45-22.51-22.53a8.4,8.4,0,0,0-5.16-2c-7.48-.22-15,.15-22.45-.23a12.18,12.18,0,0,1-7.21-2.92Q181.89,94.51,171.53,83.4a12,12,0,0,1-3-7.19c-.32-11.12-.14-22.25-.14-33.38v-5a155.13,155.13,0,0,0-48.22,15.24c2.18,1.5,4.56,2.75,6.43,4.53,5,4.72,9.68,9.75,14.63,14.5a10,10,0,0,1,3.25,8c-.16,6.62-.15,13.26,0,19.88a9.71,9.71,0,0,1-3.15,7.65c-6.35,6.18-12.64,12.44-18.77,18.85a8,8,0,0,0-2,4.81c-.24,5.87.11,11.76-.21,17.62a10,10,0,0,1-2.43,6q-11,11.52-22.49,22.54a10.78,10.78,0,0,1-5.94,2.44A92.3,92.3,0,0,1,79,180ZM180.37,36.79c0,12.44-.05,24.68.08,36.93a5.73,5.73,0,0,0,1.72,3.45c5.48,5.64,11,11.25,16.7,16.66a7.83,7.83,0,0,0,4.81,2c7.73.21,15.47-.1,23.19.22a10.93,10.93,0,0,1,6.57,2.68q14.3,13.78,28.06,28.1a10.2,10.2,0,0,1,2.6,6.25c.25,11.25.23,22.5,0,33.75,0,2-.91,4.86-2.39,5.91-8.65,6.11-11,14.41-9.49,24.37.07.49-.13,1,0,1.49.62,1.65.93,3.64,2.07,4.82,6.22,6.49,12.79,12.65,18.9,19.23a11.71,11.71,0,0,1,2.83,6.89c.36,7.61,0,15.25.23,22.87a8.42,8.42,0,0,0,2.12,5.14c6.11,6.42,12.51,12.56,18.71,18.89,11,11.22,8.78,6.18,9,21.67.07,4.65,0,9.3,0,14.52C363,257,370.76,164.49,320.59,99.8c-.83,1-1.6,1.91-2.41,2.83-4.37,5-8.65,10-13.16,14.86-3.16,3.39-6.51,3.38-9.73,0-11.19-11.65-21.46-24.05-29.19-38.33-4.36-8.07-8-16.44-7.78-25.87.07-2.6-.77-3.71-3.07-4.67-14.59-6.11-29.7-10.41-45.43-11.71C200.19,36.14,190.45,36.79,180.37,36.79ZM95.93,67.38c9.57,16,7.62,31.07-.31,46-7.74,14.58-18,27.24-29.25,39.2-4.3,4.57-7.32,4.55-11.59-.06s-8.33-9.24-12.53-13.9C21,177.78,31,260.38,60.7,291.13c.62-.55,1.28-1.09,1.88-1.69,5-5,10.13-10,15-15.14a4.46,4.46,0,0,0,.86-3.41c-2-11.43,2.15-20.13,11.35-26.73.1-.07.16-.19.27-.26,5.36-3.79,7.34-8.86,6.54-15.44-.34-2.74-.8-4.84-2.86-6.84-8.15-7.92-16.24-15.91-24.05-24.16a12.72,12.72,0,0,1-3-7.18,153,153,0,0,1-.11-15.74c.07-4.22,2.3-6.47,6.49-6.57s8.24.15,12.34-.11a7.64,7.64,0,0,0,4.48-1.9q8.52-8.15,16.67-16.7a7.41,7.41,0,0,0,1.83-4.51c.21-5.87-.14-11.76.21-17.61a11.27,11.27,0,0,1,2.57-6.27c3.42-4,7-8,11.11-11.09,8.46-6.37,11.81-14.34,10.3-24.84-.44-3.1-.86-5.61-3.3-7.79-4-3.56-7.13-9-11.72-10.72-4.9-1.9-11.07-.57-16.67-.45C99.43,66,98,66.78,95.93,67.38Zm96.42,292.23c0-6.51.28-12.89-.09-19.23a13.52,13.52,0,0,1,4.88-11.84c4.55-4.06,10.34-7.94,12.48-13.17s.82-12.28.62-18.51c-.12-3.82.77-7,3.9-9.18,7.07-4.92,8.88-11.58,8.39-20-.3-5.26-1.4-9.14-5.43-12.6-4.48-3.86-8.44-8.32-12.19-12.07-8.39,10.05-16.33,19.82-24.56,29.33-4.41,5.1-7.59,5.11-12-.11-7.35-8.63-14.34-17.58-21.47-26.41-.82-1-1.54-2.11-2.54-3.5-3.77,3.87-7.19,7.32-10.52,10.86a4.68,4.68,0,0,0-1.27,2.52c-.76,7.15-.51,14,6.55,18.33a10.3,10.3,0,0,0,4.53,1.83c5.73.22,11.47.07,17.2.09,5.56,0,7.56,2.09,7.6,7.76a43.42,43.42,0,0,1,0,6.75c-1.44,9.16,1.15,16.52,8.93,21.92,2.56,1.77,3.17,4.51,3.14,7.6-.11,11.75,0,23.5,0,35.25v4.35Zm108-254.09c5.29-6.71,10.37-12.72,14.95-19.09a95.62,95.62,0,0,0,9.53-15.6c2.41-5.23,4.58-11,5-16.62.94-11.71-6.55-23-17.52-27.63-11.77-5-22.89-3.38-32.29,5.28s-12.35,19.49-7.87,31.7C278.05,79.56,288.93,92.25,300.35,105.52ZM60.61,141.29c3.06-3.61,5.89-6.76,8.51-10.07C77.18,121,85.07,110.68,89,98.06c5.75-18.31-7.77-37.2-26.93-38.13-21-1-38.56,20.48-28.43,42.68C40.24,117,49.92,129.11,60.61,141.29Zm113.8,120c3.07-3.62,5.9-6.77,8.52-10.08,8.06-10.2,15.95-20.55,19.91-33.17,5.74-18.31-7.8-37.19-27-38.1-21-1-38.54,20.46-28.39,42.7C154.05,237.05,163.73,249.17,174.41,261.32Zm47.88-117.19h-24.8c1.08,2.08,1.62,3.83,2.71,5.08,2.21,2.54,5,4.58,7,7.27a15.1,15.1,0,0,1,3,7.22c.44,5.32.13,10.7.13,17.4,2.6-1.58,4.65-2.35,6-3.77,2.23-2.34,5.46-5,5.71-7.72C222.77,161.31,222.29,152.9,222.29,144.13Z" transform="translate(-18.5 -11.7)"/><path d="M318.1,54a17.95,17.95,0,1,1-18.05-18.08A18,18,0,0,1,318.1,54Zm-18.24,5.88a6,6,0,1,0-5.67-6.18A6.05,6.05,0,0,0,299.86,59.89Z" transform="translate(-18.5 -11.7)"/><path d="M42.64,90a17.95,17.95,0,1,1,18.23,17.9A18,18,0,0,1,42.64,90ZM60.3,95.9a6,6,0,1,0-5.68-6.18A6,6,0,0,0,60.3,95.9Z" transform="translate(-18.5 -11.7)"/><path d="M192.33,210a17.95,17.95,0,1,1-18.12-18A18,18,0,0,1,192.33,210Zm-17.75,6a6,6,0,1,0-6.16-5.69A6,6,0,0,0,174.58,215.93Z" transform="translate(-18.5 -11.7)"/></svg>