<svg id="Capa_1" data-name="Capa 1" xmlns="http://www.w3.org/2000/svg" viewBox="0 0 384 384"><title>oceania</title><path d="M13.92,164.58c.54-2.24,1-4.49,1.64-6.7a45.38,45.38,0,0,1,17-25.1q32.74-24,65.68-47.71a45.06,45.06,0,0,1,26.9-8.81c6,0,12-.11,18,0,9.41.17,16.17,6.7,15.71,16.1-.3,6.2,1.33,10.78,6.19,14.66,3.77,3,6.48,8,10.65,9.7s9.55.47,14.41.52c1.25,0,2.5,0,4.24,0,0-2.56-.06-4.83,0-7.1.11-3.38,2-5.4,5-5.46a5,5,0,0,1,5.32,5.19c.16,4.16.17,8.34,0,12.49a5,5,0,0,1-5.37,5.23c-8.68.12-17.36.15-26-.07a7.57,7.57,0,0,1-4.48-2.24c-6.07-5.86-12.08-11.8-17.88-18a10,10,0,0,1-2.24-5.49c-.36-3.2-.06-6.47-.12-9.71-.05-2.9-1.43-5.26-4.38-5.3-8.31-.11-16.74-.55-24.91.61a36,36,0,0,0-15.11,6.35c-21.74,15.32-43.2,31-64.66,46.75-10.1,7.39-15.15,17.55-15.17,30.07,0,6.36-.22,12.78.61,19a38.83,38.83,0,0,0,4.31,12.67c5.58,10.64,11.69,21,17.49,31.53,3.46,6.29,8.65,9.35,15.84,9.2,5.2-.11,10.41-.08,15.62,0a16.51,16.51,0,0,0,12.44-5.14c5.62-5.66,11.16-11.43,17-16.85a10.63,10.63,0,0,1,6.37-2.66c11.68-.26,23.37-.08,35.05-.15a7.67,7.67,0,0,1,7,3.55c2.72,4,5.68,7.88,8.44,11.87,2.15,3.1,1.72,6.1-.95,7.89-2.5,1.68-5.3,1-7.5-1.88-2-2.58-3.92-5.17-5.64-7.91a6,6,0,0,0-5.92-3.15c-9,.2-18,0-27.07.16a7.82,7.82,0,0,0-4.78,2c-5,4.67-9.74,9.57-14.55,14.42a26.6,26.6,0,0,1-20.25,8.29c-7.16-.16-14.37.19-21.46-.61-7.78-.87-13.76-5.35-17.66-12.13-6.68-11.63-13.41-23.24-19.55-35.15-2.54-4.93-3.59-10.63-5.32-16Z"/><path d="M249,261.45c-9-7.12-17.55-14.18-26.42-20.83-8.55-6.39-12.31-14.54-12.49-25.28s2.88-19.68,11.15-26.76c2.8-2.39,5.22-5.24,7.89-7.8,2.48-2.38,5.64-2.49,7.72-.41s2,5.27-.39,7.74c-3.45,3.58-7,7.09-10.55,10.55A16,16,0,0,0,220.67,211c.07,2.54,0,5.09,0,7.63,0,4.15,1.43,7.9,4.58,10.5,9.62,7.92,19.43,15.59,29.55,23.67,7.67-14,18.63-25.9,21.13-42.08a95.38,95.38,0,0,0,1-12.42c.15-7.06,0-14.12.05-21.17.13-12.63-4.67-22.86-14.47-30.85-13.72-11.18-27.26-22.57-41.06-33.64-3.43-2.75-4.91-5.7-4.69-10.05.3-6,.12-12,.05-18,0-4.4-2.31-6.93-6-6.92s-5.93,2.66-6,7c0,1.5.09,3-.07,4.51a5.18,5.18,0,0,1-5.27,4.94,4.9,4.9,0,0,1-5-5.1c0-3.33-.09-6.79.74-10,2.11-8.06,9.65-12.7,18.1-11.67a16.17,16.17,0,0,1,13.89,15.42c.22,6,.18,12,.05,18a5.62,5.62,0,0,0,2.36,5Q250,122.47,270.3,139.32c11.24,9.36,16.9,21.54,17.05,36.1.11,10.63,0,21.29-.49,31.9-.55,10.83-4.5,20.7-10.19,29.87-5.24,8.45-10.41,16.94-15.73,25.34-9.54,15.06-23.3,22.77-41.11,22.75a125.75,125.75,0,0,1-21.71-1.43c-8-1.4-14.35-6.23-19.3-12.68-3.3-4.31-6.41-8.77-9.53-13.22-2.16-3.07-1.84-6.19.67-7.95s5.58-1,7.77,1.94c3,4,5.77,8.1,8.74,12.09,5.32,7.16,12.55,10.93,21.42,10.83,7.49-.08,15.06-.2,22.41-1.42S243.78,267.68,249,261.45Z"/><path d="M62.74,329.17c-6.25-2.13-11.2-3.68-16.05-5.52a29.29,29.29,0,0,1-6.38-3.43c-6.71-4.73-6.85-11.35.17-15.62,4.76-2.9,10.26-4.61,15.49-6.71a55.56,55.56,0,0,1,6.26-1.69c-4.5-4.46-8.68-8.57-12.83-12.71a13,13,0,0,1-2.27-2.6c-1.34-2.39-1.1-4.74,1-6.56a4.75,4.75,0,0,1,6.89.21c3.87,3.65,7.62,7.43,11.31,11.26a15.72,15.72,0,0,1,1.94,3.32l1.17-.93c1.15-3.72,2-7.56,3.5-11.13a50,50,0,0,1,5.75-11c4.17-5.59,10.37-5.66,14,.26,3.35,5.41,5.32,11.68,7.81,17.6a39.37,39.37,0,0,1,1.3,5c4.14-4.19,7.92-8,11.71-11.84.81-.83,1.59-1.69,2.46-2.45,2.53-2.19,5.35-2.21,7.46-.1a5,5,0,0,1-.15,7.43c-4.53,4.6-9.23,9-14.26,13.91,4.72,1.49,8.82,2.49,12.68,4.08a46.68,46.68,0,0,1,10.32,5.51c5.44,4.1,5.62,10.27-.16,13.8s-12.53,5.63-18.87,8.3a38,38,0,0,1-4.14,1.15c4.21,4,8,7.61,11.67,11.2,1,1,2,1.92,2.91,3,2,2.36,2,5.18.1,7.2a5,5,0,0,1-7.44.05c-4-3.74-7.72-7.65-11.58-11.49-.79-.78-1.63-1.53-2.46-2.3-1.88,5.43-3.49,10.69-5.56,15.76a27.08,27.08,0,0,1-4.51,7.32c-3.73,4.36-9.11,4.64-12.52.07-3-4.07-5.1-8.95-7.2-13.65-1.3-2.91-1.86-6.14-3-10.15L58.45,347c-1.05,1.08-2.08,2.18-3.21,3.17-2.5,2.18-5.37,2.16-7.45,0s-2-5.13.25-7.46c3.93-4.09,8-8.06,12-12A14.71,14.71,0,0,1,62.74,329.17ZM84.91,350.6c4.58-7.13,6.48-14.57,7.54-22.24a4,4,0,0,0-1-2.69c-1.68-2.06-3.53-4-5.25-5.85-5.47,3.76-9.15,7.54-6.43,14.46C81.88,339.58,83.23,345.15,84.91,350.6Zm8.55-38.43c3.55,6.24,8.33,8.62,15,5.85,1.16-.48,2.49-.55,3.68-1,3.84-1.32,7.65-2.72,11.47-4.09l-.05-1.33c-4.79-1.55-9.51-3.34-14.37-4.6-9-2.32-9-2.19-15.39,4.59A3.63,3.63,0,0,0,93.46,312.17Zm-14.61.35c-2.36-2.17-3.93-3.71-5.61-5.11-.92-.76-2.12-2-3-1.83a67.24,67.24,0,0,0-22.48,6.56c.45.51.62.89.89,1,7,2.1,14.08,4.21,21.16,6.18a3.27,3.27,0,0,0,2.42-.82C74.3,316.72,76.3,314.82,78.85,312.52Zm8.05-38.17-1.53.16c-3.71,7-5.35,14.6-6.65,22.33a2.59,2.59,0,0,0,.64,1.83c1.87,2.29,3.84,4.5,6,7,2.51-2.66,4.34-4.43,5.94-6.38a4.15,4.15,0,0,0,1.1-3C90.69,289,88.77,281.68,86.9,274.35Z"/><path d="M255,22a15,15,0,0,1,10.87,4.6Q288.08,48.77,310.24,71c2.7,2.72,2.8,5.7.49,7.93s-5.17,2-8-.72c-5.92-5.85-11.92-11.62-17.59-17.71-2.44-2.62-4.36-2.08-6.31,0A14.76,14.76,0,0,0,276,65.07c-2,4.85-5.45,7.27-10.67,7.25s-10.17.06-15.26,0c-6.42-.1-10.72-4.14-10.87-10.58-.17-8.08-.25-16.18,0-24.26C239.57,28.3,246.26,22,255,22Zm19.2,27.45c-4.73-4.68-10-9.86-15.23-15.09-1.83-1.84-4.2-2.77-6.22-1.34a8,8,0,0,0-3,5.25c-.39,5.64-.15,11.32-.15,17v6.65c5.28,0,10,.07,14.74-.07a3.6,3.6,0,0,0,2.27-1.53C269,56.93,271.4,53.45,274.19,49.45Z"/><path d="M302.39,325.6c-6.66-.64-12.31-4.6-14.58-10.66a14.92,14.92,0,0,1,4.51-17.25c8.32-6.4,16.79-12.64,25.47-18.55,6.72-4.57,15.89-2.56,20.68,4S342.55,299,336.15,304c-8.35,6.56-17,12.71-25.77,18.73C308.12,324.3,305.08,324.68,302.39,325.6Zm29.54-33.44c-1.42-1.72-2.31-3.79-3.72-4.23a7.46,7.46,0,0,0-5.74.64c-7.7,5.27-15.18,10.86-22.68,16.42-2.84,2.1-3.34,5.07-1.53,7.53s4.79,2.86,7.64.82c7.59-5.44,15.16-10.91,22.61-16.53C329.85,295.79,330.6,294,331.93,292.16Z"/><path d="M342.86,240.55c-4.27-2.52-8.26-4.83-12.22-7.19-3.57-2.13-4.58-4.85-2.91-7.7s4.62-3.3,8.14-1.27c8.4,4.86,16.81,9.7,25.14,14.68s10.69,13.8,5.84,22.38c-1.07,1.92-2.15,3.84-3.32,5.69-4.81,7.62-13.93,9.93-21.45,5.49-7.28-4.31-9.69-13.48-5.49-21.19C338.53,247.89,340.62,244.44,342.86,240.55Zm9,5.27c-2.26,3.89-4.54,7.46-6.43,11.23a4.92,4.92,0,0,0,3.57,7.19c6.14.76,6.59-5.05,9-8.45,1.77-2.49,1.21-5.11-1.24-7A48.71,48.71,0,0,0,351.89,245.82Z"/><path d="M135.58,152.67c-3.27,3.44-6.08,6.5-9,9.44s-5.85,3.23-8.19,1-2.14-5.3,1-8.42c.9-.9,1.95-1.63,3.11-2.59l-9.57-8.7c-2.45,2.62-5.21,5.67-8.09,8.61s-5.91,3.26-8.21,1.1-2-5.49.89-8.47,5.66-5.78,8.6-8.56c4.72-4.48,10.4-4.51,15.15-.09,2.37,2.2,4.5,4.68,6.95,6.78a4.24,4.24,0,0,0,3.43.71c4.38-1.36,8.23-.74,11.55,2.45,3.15,3,6.27,6.15,9.32,9.31,2.44,2.55,2.58,5.59.53,7.73-2.18,2.29-5.24,2.19-7.94-.46C142.05,159.49,139.14,156.36,135.58,152.67Z"/><path d="M221.1,325a15.5,15.5,0,0,1-15.56-15.66A15.61,15.61,0,1,1,221.1,325ZM221,304.28a5.26,5.26,0,0,0-5.07,5.46,5.18,5.18,0,0,0,10.35-.18A5.32,5.32,0,0,0,221,304.28Z"/></svg>