<svg id="Capa_1" data-name="Capa 1" xmlns="http://www.w3.org/2000/svg" viewBox="0 0 190.08 384"><title>user</title><path d="M45.4,262c-4.47-.48-8.39-.53-12.13-1.37A29.9,29.9,0,0,1,9.75,231.42c-.26-27.5-.36-55,0-82.5C10,130,24.68,116.15,43.65,116.1q51.39-.13,102.78,0c19.13.05,33.68,14.06,33.91,33.18.32,27.25.27,54.51,0,81.76-.16,17.16-13,29.77-30.22,30.51-1.61.07-3.23,0-5.47,0v4.56c0,26.5.06,53,0,79.51,0,14.06-8.88,24.91-22.39,27.46-9.37,1.76-17.54-1-24.39-7.61-.89-.85-1.71-1.79-3.18-3.35a25.26,25.26,0,0,1-2.21,3.07c-7.79,8-19.55,10.75-29.67,6.47-10.89-4.61-17.18-12.95-17.3-24.9-.25-26.75-.09-53.51-.1-80.26Zm0-11.16V185.45c0-1.13,0-2.26.05-3.38.22-3.12,2.06-4.88,5-4.95s4.67,1.66,5.1,4.52a30.5,30.5,0,0,1,.16,4.49q0,78.57,0,157.14a28.84,28.84,0,0,0,.75,7.78C58.91,359.43,67,364.31,75.72,363a16.88,16.88,0,0,0,14-16.59c.06-28,0-56,0-84,0-1-.07-2,0-3,.27-3.11,2.21-4.71,5.12-5,2.71-.27,5.11,2.18,5.34,5.15.07,1,0,2,0,3q0,41.81,0,83.63a17,17,0,0,0,13.09,16.64c7.52,1.75,15.75-1.76,18.89-8.8a26.53,26.53,0,0,0,1.94-10.51q.18-78.94.1-157.89c0-1.62-.34-3.63.47-4.75,1.17-1.6,3.12-3.33,5-3.61,2.51-.38,4.39,1.52,4.81,4.24a24.49,24.49,0,0,1,.11,3.74v65.45c14,2.5,25.26-6.6,25.31-20.28.09-26.38.05-52.76,0-79.14,0-15.23-9.51-24.82-24.81-24.84q-50.07-.09-100.15,0c-15.55,0-25,9.53-25,25q0,38.82,0,77.63C20.06,243.89,29.89,252.53,45.4,250.86Z"/><path d="M141.23,56.54A46.19,46.19,0,1,1,95.07,10.35,46.27,46.27,0,0,1,141.23,56.54ZM95.31,20.79A35.74,35.74,0,1,0,130.91,57,35.74,35.74,0,0,0,95.31,20.79Z"/></svg>